<mxfile host="app.diagrams.net" modified="2023-06-05T01:48:53.613Z" agent="Mozilla/5.0 (Windows NT 10.0; Win64; x64) AppleWebKit/537.36 (KHTML, like Gecko) Chrome/114.0.0.0 Safari/537.36" etag="9Gb8ycjQZLYmNHlMMcLX" version="21.3.7" type="github">
  <diagram name="Página-1" id="bql-cKRsP29eEcLKuGOW">
    <mxGraphModel dx="1844" dy="2191" grid="1" gridSize="12" guides="1" tooltips="1" connect="1" arrows="1" fold="1" page="0" pageScale="1" pageWidth="827" pageHeight="1169" math="0" shadow="0">
      <root>
        <mxCell id="0" />
        <mxCell id="1" parent="0" />
        <mxCell id="hF0mnD3FI7eG2HYGtlSf-6" value="Anotações - Java Orientado a Objetos" style="rounded=0;whiteSpace=wrap;html=1;strokeColor=#ffffff;fontSize=40;fontColor=#ffffff;fillColor=none;fillStyle=solid;gradientColor=none;glass=0;shadow=0;fontFamily=Architects Daughter;fontStyle=1;fontSource=https%3A%2F%2Ffonts.googleapis.com%2Fcss%3Ffamily%3DArchitects%2BDaughter;" vertex="1" parent="1">
          <mxGeometry x="-384" y="-1248" width="768" height="48" as="geometry" />
        </mxCell>
        <mxCell id="hF0mnD3FI7eG2HYGtlSf-8" value="Curso - Especialista Java - Algaworks" style="rounded=0;whiteSpace=wrap;html=1;strokeColor=#ffffff;fontSize=24;fontColor=#ffffff;fillColor=none;fillStyle=solid;gradientColor=none;glass=0;shadow=0;fontFamily=Architects Daughter;fontStyle=1;fontSource=https%3A%2F%2Ffonts.googleapis.com%2Fcss%3Ffamily%3DArchitects%2BDaughter;" vertex="1" parent="1">
          <mxGeometry x="-216" y="-1188" width="480" height="48" as="geometry" />
        </mxCell>
        <mxCell id="hF0mnD3FI7eG2HYGtlSf-9" style="edgeStyle=none;curved=1;rounded=0;orthogonalLoop=1;jettySize=auto;html=1;exitX=1;exitY=0.5;exitDx=0;exitDy=0;strokeColor=#FF6392;fontFamily=Helvetica;fontSize=16;fontColor=#5AA9E6;startSize=8;endSize=8;fillColor=#FFE45E;" edge="1" parent="1" source="hF0mnD3FI7eG2HYGtlSf-8" target="hF0mnD3FI7eG2HYGtlSf-8">
          <mxGeometry relative="1" as="geometry" />
        </mxCell>
        <mxCell id="hF0mnD3FI7eG2HYGtlSf-11" value="&lt;div style=&quot;text-align: center;&quot;&gt;&lt;b style=&quot;background-color: initial;&quot;&gt;Linguagem Java&lt;/b&gt;&lt;/div&gt;&lt;font style=&quot;font-size: 24px;&quot;&gt;Principal aplicações para Java: Servidores&lt;br&gt;- Mais utilizada em backend;&lt;br&gt;- Aplicações web;&lt;br&gt;- Web APIs, Web Services.&lt;br&gt;&lt;/font&gt;" style="rounded=0;whiteSpace=wrap;html=1;strokeColor=#ffffff;fontSize=24;fontColor=#ffffff;fillColor=none;fillStyle=solid;gradientColor=none;glass=0;shadow=0;fontFamily=Courier New;fontStyle=0;align=left;verticalAlign=top;" vertex="1" parent="1">
          <mxGeometry x="-624" y="-1104" width="480" height="192" as="geometry" />
        </mxCell>
        <mxCell id="hF0mnD3FI7eG2HYGtlSf-14" value="&lt;div style=&quot;text-align: center;&quot;&gt;&lt;b&gt;Especificação JPA&lt;/b&gt;&lt;/div&gt;&lt;font style=&quot;font-size: 24px;&quot;&gt;A Jakarta Persistence, que é uma especificação da Jakarta EE especifica como funciona a tecnologia, a implementação é a tecnologia que implementa a especificação, como o Hibernate, EclipseLink ou Apache Open JPA.&amp;nbsp;&lt;br&gt;&lt;/font&gt;" style="rounded=0;whiteSpace=wrap;html=1;strokeColor=#ffffff;fontSize=24;fontColor=#ffffff;fillColor=none;fillStyle=solid;gradientColor=none;glass=0;shadow=0;fontFamily=Courier New;fontStyle=0;align=left;verticalAlign=top;" vertex="1" parent="1">
          <mxGeometry x="-624" y="-888" width="480" height="252" as="geometry" />
        </mxCell>
        <mxCell id="hF0mnD3FI7eG2HYGtlSf-15" value="&lt;div style=&quot;text-align: center;&quot;&gt;&lt;b style=&quot;background-color: initial;&quot;&gt;Plataformas Java&lt;/b&gt;&lt;/div&gt;&lt;font style=&quot;font-size: 24px;&quot;&gt;- Java SE;&lt;br&gt;- Jakarta EE;&lt;br&gt;- Java ME;&lt;br&gt;- Java Card.&lt;br&gt;&lt;/font&gt;" style="rounded=0;whiteSpace=wrap;html=1;strokeColor=#ffffff;fontSize=24;fontColor=#ffffff;fillColor=none;fillStyle=solid;gradientColor=none;glass=0;shadow=0;fontFamily=Courier New;fontStyle=0;align=left;verticalAlign=top;" vertex="1" parent="1">
          <mxGeometry x="-120" y="-1104" width="480" height="192" as="geometry" />
        </mxCell>
        <mxCell id="hF0mnD3FI7eG2HYGtlSf-16" value="&lt;font style=&quot;font-weight: normal;&quot; face=&quot;Courier New&quot;&gt;#F006&lt;/font&gt;" style="rounded=0;whiteSpace=wrap;html=1;strokeColor=#ffffff;fontSize=24;fontColor=#ffffff;fillColor=none;fillStyle=solid;gradientColor=none;glass=0;shadow=0;fontFamily=Architects Daughter;fontStyle=1;fontSource=https%3A%2F%2Ffonts.googleapis.com%2Fcss%3Ffamily%3DArchitects%2BDaughter;" vertex="1" parent="1">
          <mxGeometry x="-384" y="-1188" width="144" height="48" as="geometry" />
        </mxCell>
      </root>
    </mxGraphModel>
  </diagram>
</mxfile>
